<?xml version="1.0" encoding="UTF-8"?>
<svg width="76px" height="76px" viewBox="0 0 76 76" version="1.1" xmlns="http://www.w3.org/2000/svg" xmlns:xlink="http://www.w3.org/1999/xlink">
    <!-- Generator: sketchtool 52.6 (67491) - http://www.bohemiancoding.com/sketch -->
    <title>7C9F2114-5691-48B9-8D3A-E4B8ECE449FB</title>
    <desc>Created with sketchtool.</desc>
    <g id="Page-1" stroke="none" stroke-width="1" fill="none" fill-rule="evenodd">
        <g id="Landing-" transform="translate(-810.000000, -3963.000000)" fill-rule="nonzero">
            <g id="Group-26" transform="translate(790.000000, 3941.000000)">
                <g id="Group-14" transform="translate(20.000000, 22.000000)">
                    <circle id="Oval" fill="#DBE7EC" cx="38" cy="38" r="38"></circle>
                    <g id="iconspace_Hyperlink_25px" transform="translate(11.000000, 13.000000)">
                        <path d="M23.2463311,26.5171919 L28.0171919,21.7463311 L27.093516,20.8226551 C24.6221613,18.3513005 24.6221613,14.3444429 27.093516,11.8730882 L36.0530882,2.91351599 C38.5244429,0.442161337 42.5313005,0.442161337 45.0026551,2.91351599 L48.586484,6.49734489 C51.0578387,8.96869954 51.0578387,12.9755571 48.586484,15.4469118 L39.6269118,24.406484 C37.1555571,26.8778387 33.1486995,26.8778387 30.6773449,24.406484 L29.799101,23.5282402 L25.0282402,28.299101 L25.906484,29.1773449 C28.3778387,31.6486995 28.3778387,35.6555571 25.906484,38.1269118 L16.9469118,47.086484 C14.4755571,49.5578387 10.4686995,49.5578387 7.99734489,47.086484 L4.41351599,43.5026551 C1.94216134,41.0313005 1.94216134,37.0244429 4.41351599,34.5530882 L13.3730882,25.593516 C15.8444429,23.1221613 19.8513005,23.1221613 22.3226551,25.593516 L23.2463311,26.5171919 Z M20.540746,27.3754251 C19.0535126,25.8881916 16.6422308,25.8881916 15.1549973,27.3754251 L6.19542508,36.3349973 C4.70819164,37.8222308 4.70819164,40.2335126 6.19542508,41.720746 L9.77925398,45.3045749 C11.2664874,46.7918084 13.6777692,46.7918084 15.1650027,45.3045749 L24.1245749,36.3450027 C25.6118084,34.8577692 25.6118084,32.4464874 24.1245749,30.959254 L23.2463311,30.0810101 L19.8536706,33.4736706 C18.6657312,34.66161 16.8838221,32.8797009 18.0717615,31.6917615 L21.464422,28.299101 L20.540746,27.3754251 Z M31.5810101,21.7463311 L32.459254,22.6245749 C33.9464874,24.1118084 36.3577692,24.1118084 37.8450027,22.6245749 L46.8045749,13.6650027 C48.2918084,12.1777692 48.2918084,9.76648741 46.8045749,8.27925398 L43.220746,4.69542508 C41.7335126,3.20819164 39.3222308,3.20819164 37.8349973,4.69542508 L28.8754251,13.6549973 C27.3881916,15.1422308 27.3881916,17.5535126 28.8754251,19.040746 L29.799101,19.964422 L33.1917615,16.5717615 C34.3797009,15.3838221 36.16161,17.1657312 34.9736706,18.3536706 L31.5810101,21.7463311 Z" id="IconSpace_Hyperlink_24Px-Copy" stroke="#1E3444" stroke-width="4" opacity="0.455891927"></path>
                        <path d="M21.2463311,26.0171919 L26.0171919,21.2463311 L25.093516,20.3226551 C22.6221613,17.8513005 22.6221613,13.8444429 25.093516,11.3730882 L34.0530882,2.41351599 C36.5244429,-0.0578386633 40.5313005,-0.0578386633 43.0026551,2.41351599 L46.586484,5.99734489 C49.0578387,8.46869954 49.0578387,12.4755571 46.586484,14.9469118 L37.6269118,23.906484 C35.1555571,26.3778387 31.1486995,26.3778387 28.6773449,23.906484 L27.799101,23.0282402 L23.0282402,27.799101 L23.906484,28.6773449 C26.3778387,31.1486995 26.3778387,35.1555571 23.906484,37.6269118 L14.9469118,46.586484 C12.4755571,49.0578387 8.46869954,49.0578387 5.99734489,46.586484 L2.41351599,43.0026551 C-0.0578386633,40.5313005 -0.0578386633,36.5244429 2.41351599,34.0530882 L11.3730882,25.093516 C13.8444429,22.6221613 17.8513005,22.6221613 20.3226551,25.093516 L21.2463311,26.0171919 Z M18.540746,26.8754251 C17.0535126,25.3881916 14.6422308,25.3881916 13.1549973,26.8754251 L4.19542508,35.8349973 C2.70819164,37.3222308 2.70819164,39.7335126 4.19542508,41.220746 L7.77925398,44.8045749 C9.26648741,46.2918084 11.6777692,46.2918084 13.1650027,44.8045749 L22.1245749,35.8450027 C23.6118084,34.3577692 23.6118084,31.9464874 22.1245749,30.459254 L21.2463311,29.5810101 L17.8536706,32.9736706 C16.6657312,34.16161 14.8838221,32.3797009 16.0717615,31.1917615 L19.464422,27.799101 L18.540746,26.8754251 Z M29.5810101,21.2463311 L30.459254,22.1245749 C31.9464874,23.6118084 34.3577692,23.6118084 35.8450027,22.1245749 L44.8045749,13.1650027 C46.2918084,11.6777692 46.2918084,9.26648741 44.8045749,7.77925398 L41.220746,4.19542508 C39.7335126,2.70819164 37.3222308,2.70819164 35.8349973,4.19542508 L26.8754251,13.1549973 C25.3881916,14.6422308 25.3881916,17.0535126 26.8754251,18.540746 L27.799101,19.464422 L31.1917615,16.0717615 C32.3797009,14.8838221 34.16161,16.6657312 32.9736706,17.8536706 L29.5810101,21.2463311 Z" id="IconSpace_Hyperlink_24Px" fill="#50E3C2"></path>
                    </g>
                </g>
            </g>
        </g>
    </g>
</svg>