<?xml version="1.0" encoding="UTF-8"?>
<svg width="20px" height="14px" viewBox="0 0 20 14" version="1.1" xmlns="http://www.w3.org/2000/svg" xmlns:xlink="http://www.w3.org/1999/xlink">
    <!-- Generator: sketchtool 52.6 (67491) - http://www.bohemiancoding.com/sketch -->
    <title>0933B55A-4A68-4026-8C76-7D6FE46533D9</title>
    <desc>Created with sketchtool.</desc>
    <g id="Page-1" stroke="none" stroke-width="1" fill="none" fill-rule="evenodd">
        <g id="Landing-" transform="translate(-1041.000000, -5543.000000)" fill="#FFFFFF">
            <g id="Group-17" transform="translate(-29.000000, 5148.000000)">
                <g id="Group-14">
                    <g id="Footer">
                        <g id="Group-10" transform="translate(1070.000000, 65.000000)">
                            <g id="Group-11">
                                <g id="Group-20">
                                    <path d="M18.3823529,343.5 L1.61764706,343.5 C1.00070588,343.5 0.5,343.014667 0.5,342.416667 L0.5,331.583333 C0.5,330.985333 1.00070588,330.5 1.61764706,330.5 L18.3823529,330.5 C18.9992941,330.5 19.5,330.985333 19.5,331.583333 L19.5,342.416667 C19.5,343.014667 18.9992941,343.5 18.3823529,343.5 L18.3823529,343.5 Z M10.0022353,337.002167 L14.4750588,332.666667 L5.52941176,332.666667 L10.0022353,337.002167 L10.0022353,337.002167 Z M11.1981176,339.065917 L17.1607647,333.286333 C17.2881765,333.16175 17.2647059,341.333333 17.2647059,341.333333 L2.73529412,341.333333 C2.73529412,341.333333 2.81576471,333.1 2.92976471,333.2105 L8.60070588,338.707333 C8.80076471,338.902333 10.9779412,339.279333 11.1981176,339.065917 L11.1981176,339.065917 Z" id="Shape-Copy"></path>
                                </g>
                            </g>
                        </g>
                    </g>
                </g>
            </g>
        </g>
    </g>
</svg>