<?xml version="1.0" encoding="UTF-8"?>
<svg width="21px" height="16px" viewBox="0 0 21 16" version="1.1" xmlns="http://www.w3.org/2000/svg" xmlns:xlink="http://www.w3.org/1999/xlink">
    <!-- Generator: sketchtool 52.6 (67491) - http://www.bohemiancoding.com/sketch -->
    <title>E528F089-FB37-4E8F-A277-6AC2419D14EE</title>
    <desc>Created with sketchtool.</desc>
    <g id="Page-1" stroke="none" stroke-width="1" fill="none" fill-rule="evenodd">
        <g id="Landing-" transform="translate(-1117.000000, -5397.000000)" fill="#FFFFFF">
            <g id="Group-17" transform="translate(-29.000000, 5148.000000)">
                <g id="Group-14">
                    <g id="Footer">
                        <g id="Group-10" transform="translate(1070.000000, 65.000000)">
                            <g id="Group-11">
                                <g id="Group-20">
                                    <path d="M97.008,185.895 C96.235,186.216 95.404,186.432 94.533,186.53 C95.423,186.029 96.106,185.238 96.428,184.296 C95.595,184.758 94.672,185.094 93.69,185.276 C92.905,184.49 91.784,184 90.545,184 C88.165,184 86.234,185.809 86.234,188.039 C86.234,188.356 86.272,188.665 86.346,188.959 C82.764,188.791 79.588,187.183 77.462,184.74 C77.092,185.337 76.879,186.029 76.879,186.771 C76.879,188.171 77.64,189.409 78.797,190.133 C78.09,190.111 77.426,189.93 76.844,189.627 L76.844,189.679 C76.844,191.635 78.33,193.268 80.301,193.639 C79.94,193.731 79.559,193.779 79.166,193.779 C78.888,193.779 78.618,193.755 78.355,193.709 C78.903,195.312 80.495,196.48 82.381,196.514 C80.906,197.596 79.048,198.242 77.028,198.242 C76.68,198.242 76.337,198.223 76,198.186 C77.907,199.331 80.173,200.001 82.607,200.001 C90.535,200.001 94.87,193.845 94.87,188.508 C94.87,188.332 94.865,188.159 94.857,187.984 C95.699,187.415 96.43,186.704 97.008,185.895 L97.008,185.895 Z" id="Shape-Copy-3"></path>
                                </g>
                            </g>
                        </g>
                    </g>
                </g>
            </g>
        </g>
    </g>
</svg>