<?xml version="1.0" encoding="UTF-8"?>
<svg width="48px" height="36px" viewBox="0 0 48 36" version="1.1" xmlns="http://www.w3.org/2000/svg" xmlns:xlink="http://www.w3.org/1999/xlink">
    <!-- Generator: sketchtool 53 (72520) - https://sketchapp.com -->
    <title>20CFAD10-CF80-43E7-B5F5-D6285A1F420D</title>
    <desc>Created with sketchtool.</desc>
    <g id="Page-1" stroke="none" stroke-width="1" fill="none" fill-rule="evenodd">
        <g id="Landing--Copy-3" transform="translate(-156.000000, -4130.000000)">
            <g id="Group-26" transform="translate(113.500000, 4122.000000)">
                <g id="iconspace_Debit-Cart_25px" transform="translate(39.000000, 0.000000)">
                    <polygon id="Debit-Cart" points="0 0 55 0 55 55 0 55"></polygon>
                    <path d="M50.6,17.6 L4.4,17.6 L4.4,16.5 C4.4,12.2474074 7.84740743,8.8 12.1,8.8 L42.9,8.8 C47.1525926,8.8 50.6,12.2474074 50.6,16.5 L50.6,17.6 Z M50.6,26.4 L50.6,36.3 C50.6,40.5525926 47.1525926,44 42.9,44 L12.1,44 C7.84740743,44 4.4,40.5525926 4.4,36.3 L4.4,26.4 L50.6,26.4 Z M34.1,37.4 L42.9,37.4 C43.5075132,37.4 44,36.9075132 44,36.3 C44,35.6924868 43.5075132,35.2 42.9,35.2 L34.1,35.2 C33.4924868,35.2 33,35.6924868 33,36.3 C33,36.9075132 33.4924868,37.4 34.1,37.4 Z" id="Debit-Cart" fill="#1E3444" fill-rule="nonzero"></path>
                    <polygon id="Debit-Cart" fill="#50E3C2" points="4.4 19.8 4.4 24.2 50.6 24.2 50.6 19.8"></polygon>
                </g>
            </g>
        </g>
    </g>
</svg>