<?xml version="1.0" encoding="UTF-8"?>
<svg width="44px" height="45px" viewBox="0 0 44 45" version="1.1" xmlns="http://www.w3.org/2000/svg" xmlns:xlink="http://www.w3.org/1999/xlink">
    <!-- Generator: sketchtool 53 (72520) - https://sketchapp.com -->
    <title>6D5299F3-0417-429E-A45C-7AEF815D2628</title>
    <desc>Created with sketchtool.</desc>
    <g id="Page-1" stroke="none" stroke-width="1" fill="none" fill-rule="evenodd">
        <g id="Landing--Copy-3" transform="translate(-339.000000, -4124.000000)">
            <g id="Group-28" transform="translate(296.500000, 4120.000000)">
                <g id="iconspace_Diagram-chart_25px" transform="translate(39.000000, 0.000000)">
                    <polygon id="Diagram-chart" points="0 0 55 0 55 55 0 55"></polygon>
                    <path d="M28.0504118,29.15 C29.8729515,29.15 31.3504118,30.6274603 31.3504118,32.45 L31.3504118,45.65 C31.3504118,47.4725397 29.8729515,48.95 28.0504118,48.95 L23.6504118,48.95 C21.8278721,48.95 20.3504118,47.4725397 20.3504118,45.65 L20.3504118,32.45 C20.3504118,30.6274603 21.8278721,29.15 23.6504118,29.15 L28.0504118,29.15 Z M12.6504118,24.75 C14.4729515,24.75 15.9504118,26.2274603 15.9504118,28.05 L15.9504118,45.65 C15.9504118,47.4725397 14.4729515,48.95 12.6504118,48.95 L8.2504118,48.95 C6.42787212,48.95 4.9504118,47.4725397 4.9504118,45.65 L4.9504118,28.05 C4.9504118,26.2274603 6.42787212,24.75 8.2504118,24.75 L12.6504118,24.75 Z M43.4504118,20.35 C45.2729515,20.35 46.7504118,21.8274603 46.7504118,23.65 L46.7504118,45.65 C46.7504118,47.4725397 45.2729515,48.95 43.4504118,48.95 L39.0504118,48.95 C37.2278721,48.95 35.7504118,47.4725397 35.7504118,45.65 L35.7504118,23.65 C35.7504118,21.8274603 37.2278721,20.35 39.0504118,20.35 L43.4504118,20.35 Z" id="Diagram-chart" fill="#1E3444" fill-rule="nonzero"></path>
                    <path d="M39.4384199,7.72853949 L36.8409157,7.74698962 C35.9296688,7.75346223 35.1857102,7.01999778 35.1792376,6.10875093 C35.172765,5.19750408 35.9062294,4.45354547 36.8174763,4.44707287 L43.4369238,4.40005479 C43.8636802,4.39658791 44.2915251,4.55766092 44.617138,4.88327381 C44.7782293,5.04436516 44.8990478,5.23047885 44.9795935,5.42910371 C45.0542219,5.60503611 45.1004118,5.82209254 45.1004118,6.0500006 L45.1004118,12.6780646 C45.1004118,13.5893344 44.3616816,14.3280646 43.4504118,14.3280646 C42.539142,14.3280646 41.8004118,13.5893344 41.8004118,12.6780646 L41.8004118,10.0334524 L27.017138,24.8167262 C26.5343797,25.2994845 25.8041638,25.4350693 25.1802833,25.1577891 L5.38028333,16.3577891 C4.54755443,15.9876873 4.17252101,15.0126004 4.54262274,14.1798715 C4.91272448,13.3471426 5.88781137,12.9721092 6.72054027,13.3422109 L25.4849921,21.6819673 L39.4384199,7.72853949 Z" id="Diagram-chart" fill="#50E3C2"></path>
                </g>
            </g>
        </g>
    </g>
</svg>