<?xml version="1.0" encoding="UTF-8"?>
<svg width="68px" height="73px" viewBox="0 0 68 73" version="1.1" xmlns="http://www.w3.org/2000/svg" xmlns:xlink="http://www.w3.org/1999/xlink">
    <!-- Generator: sketchtool 53 (72520) - https://sketchapp.com -->
    <title>996CB141-567B-49AD-A7E7-ECB9C3E84DFD</title>
    <desc>Created with sketchtool.</desc>
    <g id="Page-1" stroke="none" stroke-width="1" fill="none" fill-rule="evenodd">
        <g id="Landing--Copy-4" transform="translate(-999.000000, -2155.000000)">
            <g id="Group-28" transform="translate(999.000000, 2155.000000)">
                <g id="iconspace_Diagram-chart_25px" transform="translate(2.720000, 0.000000)" fill-rule="nonzero">
                    <path d="M34.3451307,35.7249383 C36.9890283,35.7249383 39.1323307,37.8553996 39.1323307,40.4834568 L39.1323307,59.5175309 C39.1323307,62.1455881 36.9890283,64.2760494 34.3451307,64.2760494 L27.9621974,64.2760494 C25.3182998,64.2760494 23.1749974,62.1455881 23.1749974,59.5175309 L23.1749974,40.4834568 C23.1749974,37.8553996 25.3182998,35.7249383 27.9621974,35.7249383 L34.3451307,35.7249383 Z M12.004864,31.8316049 C14.6487616,31.8316049 16.792064,33.8124057 16.792064,36.2558474 L16.792064,59.851807 C16.792064,62.2952486 14.6487616,64.2760494 12.004864,64.2760494 L5.62193071,64.2760494 C2.97803316,64.2760494 0.834730715,62.2952486 0.834730715,59.851807 L0.834730715,36.2558474 C0.834730715,33.8124057 2.97803316,31.8316049 5.62193071,31.8316049 L12.004864,31.8316049 Z M56.6853974,23.0355556 C59.3292949,23.0355556 61.4725974,25.1660169 61.4725974,27.7940741 L61.4725974,59.5175309 C61.4725974,62.1455881 59.3292949,64.2760494 56.6853974,64.2760494 L50.302464,64.2760494 C47.6585665,64.2760494 45.515264,62.1455881 45.515264,59.5175309 L45.515264,27.7940741 C45.515264,25.1660169 47.6585665,23.0355556 50.302464,23.0355556 L56.6853974,23.0355556 Z" id="Diagram-chart" fill="#1E3444"></path>
                    <path d="M50.8653345,4.83572114 L47.0972217,4.86232577 C45.7753062,4.87165911 44.6960703,3.81402149 44.6866807,2.50002604 C44.6772911,1.18603058 45.7413035,0.11326063 47.0632189,0.103927292 L56.6658309,0.0361283822 C57.2849121,0.031129235 57.9055724,0.263392536 58.3779282,0.732918286 C58.611618,0.96520803 58.7868854,1.23357938 58.9037302,1.51999152 C59.0119912,1.7736817 59.0789974,2.08667171 59.0789974,2.41530951 L59.0789974,11.9728141 C59.0789974,13.2868427 58.0073462,14.3520734 56.6853974,14.3520734 C55.3634486,14.3520734 54.2917974,13.2868427 54.2917974,11.9728141 L54.2917974,8.15934861 L32.8461948,29.4764644 C32.1458734,30.17259 31.0865737,30.3680999 30.181531,29.9682687 L1.45833102,17.2788859 C0.250318956,16.7452084 -0.293729523,15.3391572 0.243164725,14.1383827 C0.780058974,12.9376081 2.19458502,12.3968192 3.40259708,12.9304968 L30.6235619,24.9562195 L50.8653345,4.83572114 Z" id="Diagram-chart" fill="#36D2AF"></path>
                </g>
                <rect id="Rectangle" fill="#FFFFFF" x="0" y="67.5925926" width="68" height="5.40740741" rx="2.7"></rect>
            </g>
        </g>
    </g>
</svg>