<?xml version="1.0" encoding="UTF-8"?>
<svg width="19px" height="13px" viewBox="0 0 19 13" version="1.1" xmlns="http://www.w3.org/2000/svg" xmlns:xlink="http://www.w3.org/1999/xlink">
    <!-- Generator: sketchtool 53 (72520) - https://sketchapp.com -->
    <title>08301CE2-F760-4C9C-A75E-7DAD9F619E4B</title>
    <desc>Created with sketchtool.</desc>
    <g id="Page-1" stroke="none" stroke-width="1" fill="none" fill-rule="evenodd">
        <g id="Landing--Copy-4" transform="translate(-1094.000000, -5216.000000)" fill="#FFFFFF">
            <g id="Group-17" transform="translate(-30.000000, 5068.000000)">
                <g id="Group-14">
                    <g id="Footer">
                        <g id="Group-10" transform="translate(190.000000, 52.000000)">
                            <g id="Group-11" transform="translate(0.500000, 0.000000)">
                                <g id="Group-20">
                                    <path d="M951.382353,109 L934.617647,109 C934.000706,109 933.5,108.514667 933.5,107.916667 L933.5,97.0833333 C933.5,96.4853333 934.000706,96 934.617647,96 L951.382353,96 C951.999294,96 952.5,96.4853333 952.5,97.0833333 L952.5,107.916667 C952.5,108.514667 951.999294,109 951.382353,109 L951.382353,109 Z M943.002235,102.502167 L947.475059,98.1666667 L938.529412,98.1666667 L943.002235,102.502167 L943.002235,102.502167 Z M944.198118,104.565917 L950.160765,98.7863333 C950.288176,98.66175 950.264706,106.833333 950.264706,106.833333 L935.735294,106.833333 C935.735294,106.833333 935.815765,98.6 935.929765,98.7105 L941.600706,104.207333 C941.800765,104.402333 943.977941,104.779333 944.198118,104.565917 L944.198118,104.565917 Z" id="Shape-Copy"></path>
                                </g>
                            </g>
                        </g>
                    </g>
                </g>
            </g>
        </g>
    </g>
</svg>