<?xml version="1.0" encoding="UTF-8"?>
<svg width="67px" height="70px" viewBox="0 0 67 70" version="1.1" xmlns="http://www.w3.org/2000/svg" xmlns:xlink="http://www.w3.org/1999/xlink">
    <!-- Generator: sketchtool 53 (72520) - https://sketchapp.com -->
    <title>F9071437-1797-42FB-A0D1-9FB7555F8C25</title>
    <desc>Created with sketchtool.</desc>
    <g id="Page-1" stroke="none" stroke-width="1" fill="none" fill-rule="evenodd">
        <g id="Landing--Copy-4" transform="translate(-569.000000, -2154.000000)">
            <g id="Group-3" transform="translate(569.000000, 2154.000000)">
                <g id="file">
                    <g id="Group">
                        <path d="M54.4375,16.8965517 L37.6875,0 L7.79821429,8.8817842e-16 C3.82176409,1.61864047e-15 0.598214286,3.2235498 0.598214286,7.2 L0.598214286,62.8 C0.598214286,66.7764502 3.82176409,70 7.79821429,70 L47.2375,70 C51.2139502,70 54.4375,66.7764502 54.4375,62.8 L54.4375,16.8965517 Z" id="Path" fill="#1E3444"></path>
                        <path d="M37.6875,0 L37.6875,12.0965517 C37.6875,14.7475185 39.8365332,16.8965517 42.4875,16.8965517 L54.4375,16.8965517 L37.6875,0 Z" id="Path" fill="#FFFFFF" fill-rule="nonzero"></path>
                    </g>
                    <g id="Group" transform="translate(37.089286, 41.034483)" fill-rule="nonzero">
                        <ellipse id="Oval" fill="#36D2AF" cx="14.9553571" cy="14.4827586" rx="14.3571429" ry="14.4827586"></ellipse>
                        <path d="M22.1339286,13.2758621 L16.1517857,13.2758621 L16.1517857,7.24137931 C16.1517857,6.57517241 15.6157857,6.03448276 14.9553571,6.03448276 C14.2949286,6.03448276 13.7589286,6.57517241 13.7589286,7.24137931 L13.7589286,13.2758621 L7.77678571,13.2758621 C7.11635714,13.2758621 6.58035714,13.8165517 6.58035714,14.4827586 C6.58035714,15.1489655 7.11635714,15.6896552 7.77678571,15.6896552 L13.7589286,15.6896552 L13.7589286,21.7241379 C13.7589286,22.3903448 14.2949286,22.9310345 14.9553571,22.9310345 C15.6157857,22.9310345 16.1517857,22.3903448 16.1517857,21.7241379 L16.1517857,15.6896552 L22.1339286,15.6896552 C22.7943571,15.6896552 23.3303571,15.1489655 23.3303571,14.4827586 C23.3303571,13.8165517 22.7943571,13.2758621 22.1339286,13.2758621 Z" id="Path" stroke="#FFFFFF" stroke-width="2.4" fill="#FFFFFF"></path>
                    </g>
                </g>
                <rect id="Rectangle" fill="#DBE7EC" x="9.57142857" y="15.6896552" width="23.9285714" height="6.03448276" rx="3"></rect>
                <rect id="Rectangle-Copy-4" fill="#DBE7EC" x="9.57142857" y="28.9655172" width="34.6964286" height="6.03448276" rx="3"></rect>
                <rect id="Rectangle-Copy-5" fill="#DBE7EC" x="9.57142857" y="42.2413793" width="27.5178571" height="6.03448276" rx="3"></rect>
            </g>
        </g>
    </g>
</svg>