<?xml version="1.0" encoding="UTF-8"?>
<svg width="410px" height="404px" viewBox="0 0 410 404" version="1.1" xmlns="http://www.w3.org/2000/svg" xmlns:xlink="http://www.w3.org/1999/xlink">
    <!-- Generator: sketchtool 53 (72520) - https://sketchapp.com -->
    <title>218A0DEB-F60F-4C04-B090-90A6C3E3A36E</title>
    <desc>Created with sketchtool.</desc>
    <defs>
        <linearGradient x1="93.7824191%" y1="40.6302338%" x2="21.1767666%" y2="56.0972603%" id="linearGradient-1">
            <stop stop-color="#CBB094" offset="0%"></stop>
            <stop stop-color="#CBB094" offset="7.9817879%"></stop>
            <stop stop-color="#9B795B" offset="100%"></stop>
        </linearGradient>
        <linearGradient x1="75.3494536%" y1="37.223485%" x2="35.6347202%" y2="60.8659324%" id="linearGradient-2">
            <stop stop-color="#D9BFA3" offset="0%"></stop>
            <stop stop-color="#B18B6A" offset="100%"></stop>
        </linearGradient>
        <linearGradient x1="34.94884%" y1="-107.276245%" x2="52.5962629%" y2="100%" id="linearGradient-3">
            <stop stop-color="#69FF97" offset="0%"></stop>
            <stop stop-color="#00E4FF" offset="100%"></stop>
        </linearGradient>
        <linearGradient x1="9.92667303%" y1="-152.667986%" x2="57.7006824%" y2="100%" id="linearGradient-4">
            <stop stop-color="#69FF97" offset="0%"></stop>
            <stop stop-color="#00E4FF" offset="100%"></stop>
        </linearGradient>
        <linearGradient x1="50%" y1="-19.614938%" x2="50%" y2="84.8171677%" id="linearGradient-5">
            <stop stop-color="#7AE5D4" stop-opacity="0" offset="0%"></stop>
            <stop stop-color="#44C7A9" offset="100%"></stop>
        </linearGradient>
        <linearGradient x1="50%" y1="0%" x2="50%" y2="100%" id="linearGradient-6">
            <stop stop-color="#406479" offset="0%"></stop>
            <stop stop-color="#1E3444" offset="100%"></stop>
        </linearGradient>
        <linearGradient x1="93.6300653%" y1="45.5364199%" x2="13.6494428%" y2="54.5664597%" id="linearGradient-7">
            <stop stop-color="#D9BFA3" offset="0%"></stop>
            <stop stop-color="#B18B6A" offset="100%"></stop>
        </linearGradient>
        <linearGradient x1="50%" y1="0%" x2="50%" y2="100%" id="linearGradient-8">
            <stop stop-color="#66FBDA" offset="0%"></stop>
            <stop stop-color="#50E2C1" offset="100%"></stop>
        </linearGradient>
        <linearGradient x1="50%" y1="0%" x2="50%" y2="103.80313%" id="linearGradient-9">
            <stop stop-color="#66FBDA" offset="0%"></stop>
            <stop stop-color="#40BEA2" offset="100%"></stop>
        </linearGradient>
    </defs>
    <g id="Page-1" stroke="none" stroke-width="1" fill="none" fill-rule="evenodd">
        <g id="Landing--Copy-3" transform="translate(-877.000000, -3810.000000)">
            <g id="Good_hands" transform="translate(876.500000, 3810.000000)">
                <g id="shield" transform="translate(205.000000, 309.500000) scale(-1, 1) translate(-205.000000, -309.500000) translate(0.000000, 215.000000)">
                    <path d="M378.842897,53.7112717 L296.401453,108.910573 L271.831674,107.530043 L270.870112,97.8569695 C269.437135,83.4551148 258.354197,71.8955264 244.030672,69.8684593 L156.865711,62.2255759 C148.324044,61.0168319 130.357197,51.5124199 116.27094,43.4291409 C102.91522,35.7643938 87.8268153,31.6384227 72.432459,31.5103648 L28.1163198,31.1449308 L28.1163198,139.532081 L153.556438,187.057264 C158.298687,188.39719 163.278204,188.796981 168.142208,188.028632 C168.170307,188.022386 168.201526,188.016139 168.229624,188.013015 L294.518914,169.800651 C304.246924,168.248336 313.39425,164.147353 321.03055,157.919355 L402.65092,84.4733335 C409.978146,77.9673557 411.336196,67.0293171 405.822826,58.9272983 C399.794332,50.0600535 387.740467,47.7300198 378.842897,53.7112717 L378.842897,53.7112717 Z" id="Path" fill="url(#linearGradient-1)" fill-rule="nonzero"></path>
                    <path d="M405.822826,58.9241743 C405.279605,58.1214687 404.68019,57.3749833 404.043311,56.6815958 L321.03055,117.671622 C313.39425,123.902744 304.246924,128.000604 294.518914,129.556041 L168.229624,147.768406 C168.198404,147.771529 168.170307,147.777776 168.142208,147.7809 C163.275082,148.552371 158.295565,148.149457 153.556438,146.809532 L28.1131973,99.2874721 L28.1131973,139.532081 L153.556438,187.054141 C158.295565,188.394067 163.275082,188.796981 168.142208,188.025509 C168.170307,188.022386 168.198404,188.016139 168.229624,188.013015 L294.518914,169.800651 C304.246924,168.245213 313.39425,164.147353 321.03055,157.916232 L402.65092,84.4733335 C409.978146,77.9642317 411.336196,67.0293171 405.822826,58.9241743 L405.822826,58.9241743 Z" id="Path" fill="url(#linearGradient-2)" fill-rule="nonzero"></path>
                    <path d="M60.6345947,0.71082333 L29.002954,0.71082333 L29.002954,176.940672 L60.6345947,176.940672 C65.3425008,176.940672 69.160651,173.123915 69.160651,168.413875 L69.160651,9.24074426 C69.160651,4.53070381 65.3425008,0.71082333 60.6345947,0.71082333 Z" id="Path" fill="url(#linearGradient-3)" fill-rule="nonzero"></path>
                    <g id="Group-24" transform="translate(0.000000, 0.710823)">
                        <path d="M60.6345947,176.229849 L8.5260571,176.229849 C3.81815018,176.229849 2.13162821e-14,172.413092 2.13162821e-14,167.703051 L2.13162821e-14,8.52992093 C2.13162821e-14,3.81988048 3.81815018,1.70530257e-13 8.5260571,1.70530257e-13 L60.6345947,1.70530257e-13 C65.3425008,1.70530257e-13 69.160651,3.81988048 69.160651,8.52992093 L69.160651,167.703051 C69.160651,172.413092 65.3425008,176.229849 60.6345947,176.229849 Z" id="Path" fill="url(#linearGradient-4)" fill-rule="nonzero"></path>
                        <rect id="Rectangle" fill="url(#linearGradient-5)" x="0" y="88.2891767" width="70" height="89" rx="9"></rect>
                    </g>
                    <path d="M49.1177051,137.786119 C49.1177051,146.444098 42.0995521,153.465431 33.445495,153.465431 C24.7883163,153.465431 17.773285,146.444098 17.773285,137.786119 C17.773285,129.125017 24.7883163,122.106806 33.445495,122.106806 C42.0995521,122.106806 49.1177051,129.125017 49.1177051,137.786119 Z" id="Path" fill="url(#linearGradient-6)" fill-rule="nonzero"></path>
                    <path d="M271.126112,100.433749 L144.471552,108.888709 C144.387259,108.885586 144.306089,108.879338 144.234284,108.873091 C140.306866,108.517028 136.757203,106.658623 134.237787,103.638326 C131.965004,100.911624 127.912707,100.543067 125.190363,102.816879 C122.464897,105.090692 122.099629,109.144825 124.369289,111.871526 C129.086562,117.527947 135.73008,121.010504 143.085404,121.675781 C143.3976,121.703892 143.709795,121.725755 143.975161,121.735125 C144.1656,121.744496 144.35604,121.747619 144.546479,121.747619 C144.618284,121.747619 144.765015,121.747619 144.833699,121.744496 C144.896138,121.741372 144.955455,121.738248 145.014772,121.735125 L271.828552,107.508179 L271.126112,100.433749 Z" id="Path" fill="url(#linearGradient-7)" fill-rule="nonzero"></path>
                </g>
                <g id="shield-(1)" transform="translate(58.000000, 0.000000)" fill-rule="nonzero">
                    <path d="M202.480513,167.616112 C195.741365,185.900322 185.549432,201.79847 172.183996,214.864364 C156.970699,229.736084 137.049753,241.553414 112.973988,249.983147 C112.18396,250.258903 111.3595,250.484871 110.531214,250.651474 C109.437035,250.867867 108.323727,250.98468 107.219984,251 L107.003826,251 C105.827392,251 104.645219,250.881271 103.472612,250.651474 C102.644326,250.484871 101.831343,250.258903 101.045141,249.988892 C76.9406825,241.572563 56.9948693,229.760979 41.7662683,214.889259 C28.3950944,201.823364 18.2050735,185.934792 11.47549,167.650581 C-0.761334627,134.406563 -0.0650383707,97.7845231 0.495441341,68.3551408 L0.505005721,67.903206 C0.61786697,65.473099 0.690556943,62.9204329 0.73072822,60.1015853 C0.935408201,46.2620394 11.9269345,34.8123857 25.753379,34.0406494 C54.5807886,32.430153 76.8813824,23.0180359 95.9357838,4.42551434 L96.1022062,4.2723161 C99.2661433,1.36729407 103.252628,-0.0574495859 107.219984,0.00191497803 C111.045785,0.0517045293 114.856282,1.47453284 117.907359,4.2723161 L118.069955,4.42551434 C137.128182,23.0180359 159.428776,32.430153 188.256186,34.0406494 C202.08263,34.8123857 213.074156,46.2620394 213.278837,60.1015853 C213.319007,62.9395829 213.391697,65.4884188 213.504559,67.903206 L213.510297,68.0947038 C214.068864,97.5796204 214.761335,134.27443 202.480513,167.616112 Z" id="Path" fill="url(#linearGradient-8)"></path>
                    <path d="M202.480513,167.616112 C195.741365,185.900322 185.549432,201.79847 172.183996,214.864364 C156.970699,229.736084 137.049753,241.553414 112.973988,249.983147 C112.18396,250.258903 111.3595,250.484871 110.531214,250.651474 C109.437035,250.867867 108.323727,250.98468 107.219984,251 L107.219984,0.00191497803 C111.045785,0.0517045293 114.856282,1.47453284 117.907359,4.2723161 L118.069955,4.42551434 C137.128182,23.0180359 159.428776,32.430153 188.256186,34.0406494 C202.08263,34.8123857 213.074156,46.2620394 213.278837,60.1015853 C213.319007,62.9395829 213.391697,65.4884188 213.504559,67.903206 L213.510297,68.0947038 C214.068864,97.5796204 214.761335,134.27443 202.480513,167.616112 Z" id="Path" fill="url(#linearGradient-9)"></path>
                    <path d="M169.486806,125.5 C169.486806,159.9179 141.57185,187.934029 107.219984,188.056587 L107,188.056587 C72.5467497,188.056587 44.5112806,159.992584 44.5112806,125.5 C44.5112806,91.0093306 72.5467497,62.945328 107,62.945328 L107.219984,62.945328 C141.57185,63.0678866 169.486806,91.0840149 169.486806,125.5 Z" id="Path" fill="#FFFFFF"></path>
                    <path d="M169.486806,125.5 C169.486806,159.9179 141.57185,187.934029 107.219984,188.056587 L107.219984,62.945328 C141.57185,63.0678866 169.486806,91.0840149 169.486806,125.5 Z" id="Path" fill="#E8F6FD"></path>
                    <path d="M135.362575,116.491943 L107.219984,144.66893 L101.138873,150.756645 C99.7022846,152.194794 97.8180778,152.912911 95.9357838,152.912911 C94.0515769,152.912911 92.1692829,152.194794 90.7307817,150.756645 L77.656107,137.662026 C74.7829307,134.785728 74.7829307,130.126587 77.656107,127.248375 C80.5254577,124.372078 85.1852832,124.372078 88.0584594,127.248375 L95.9357838,135.134255 L124.960222,106.078293 C127.833399,103.200081 132.493225,103.200081 135.362575,106.078293 C138.235751,108.95459 138.235751,113.619476 135.362575,116.491943 Z" id="Path" fill="#1E3444"></path>
                    <path d="M135.362575,116.491943 L107.219984,144.66893 L107.219984,123.835884 L124.960222,106.078293 C127.833399,103.200081 132.493225,103.200081 135.362575,106.078293 C138.235751,108.95459 138.235751,113.619476 135.362575,116.491943 Z" id="Path" fill="#2F4C62"></path>
                </g>
            </g>
        </g>
    </g>
</svg>