<?xml version="1.0" encoding="UTF-8"?>
<svg width="73px" height="73px" viewBox="0 0 73 73" version="1.1" xmlns="http://www.w3.org/2000/svg" xmlns:xlink="http://www.w3.org/1999/xlink">
    <!-- Generator: sketchtool 53 (72520) - https://sketchapp.com -->
    <title>731760E1-6D4C-4803-A94A-AB9872892715</title>
    <desc>Created with sketchtool.</desc>
    <g id="Page-1" stroke="none" stroke-width="1" fill="none" fill-rule="evenodd">
        <g id="Landing--Copy-4" transform="translate(-158.000000, -2151.000000)">
            <g id="help-(1)" transform="translate(158.000000, 2151.000000)">
                <path d="M73,36.5 C73,56.6586533 56.6586533,73 36.5,73 C16.3413467,73 0,56.6586533 0,36.5 C0,16.3413467 16.3413467,0 36.5,0 C56.6586533,0 73,16.3413467 73,36.5 Z" id="Path" fill="#1E3444"></path>
                <g id="Group" transform="translate(12.974609, 9.980469)" fill-rule="nonzero">
                    <path d="M28.3580093,25.7554016 C26.4816589,27.2223969 26.4476853,28.2460632 26.4476853,30.0199356 C26.4476853,30.6682205 26.1062774,31.4184265 24.4348831,31.4184265 C23.0358352,31.4184265 22.5585327,30.9065933 22.5585327,29.1327209 C22.5585327,26.1992874 23.8545456,24.8002395 24.8442383,23.9475556 C25.9698257,22.9923935 27.8801499,21.9347534 27.8801499,20.0923767 C27.8801499,18.5229034 26.5156326,17.7721406 24.8097076,17.7721406 C21.3299102,17.7721406 22.0806733,20.3992539 20.2382964,20.3992539 C19.3171082,20.3992539 18.1915207,19.7849426 18.1915207,18.4543991 C18.1915207,16.6125793 20.3068008,13.882988 24.9121856,13.882988 C29.2791977,13.882988 32.1786575,16.3051453 32.1786575,19.5120391 C32.1786575,22.7189331 29.2791977,25.0391694 28.3580093,25.7554016 L28.3580093,25.7554016 Z M27.0959702,36.3997498 C27.0959702,37.7982407 25.9358521,39.0263062 24.4688569,39.0263062 C23.0018616,39.0263062 21.8762741,37.7982407 21.8762741,36.3997498 C21.8762741,34.9667282 23.0358352,33.7726364 24.4688569,33.7726364 C25.9018784,33.7726364 27.0959702,34.9667282 27.0959702,36.3997498 Z" id="Shape" fill="#DBE7EC"></path>
                    <path d="M25.2363281,50.4726562 L2.13867187,50.4726562 C0.957946777,50.4726562 0,49.5152664 0,48.3339844 L0,25.2363281 C0,11.3210373 11.3210373,0 25.2363281,0 C39.1521758,0 50.4726562,11.3210373 50.4726562,25.2363281 C50.4726562,39.1516189 39.1521758,50.4726562 25.2363281,50.4726562 Z M4.27734375,46.1953125 L25.2363281,46.1953125 C36.7935105,46.1953125 46.1953125,36.7929536 46.1953125,25.2363281 C46.1953125,13.6797027 36.7935105,4.27734375 25.2363281,4.27734375 C13.6797027,4.27734375 4.27734375,13.6797027 4.27734375,25.2363281 L4.27734375,46.1953125 Z" id="Shape" fill="#36D2AF"></path>
                </g>
            </g>
        </g>
    </g>
</svg>