<?xml version="1.0" encoding="UTF-8"?>
<svg width="51px" height="21px" viewBox="0 0 51 21" version="1.1" xmlns="http://www.w3.org/2000/svg" xmlns:xlink="http://www.w3.org/1999/xlink">
    <!-- Generator: Sketch 53 (72520) - https://sketchapp.com -->
    <title>Group</title>
    <desc>Created with Sketch.</desc>
    <g id="Page-1" stroke="none" stroke-width="1" fill="none" fill-rule="evenodd">
        <g id="Group">
            <path d="M43.3599095,0.119397086 L49.6952026,1.4960612 C50.4982394,1.67056172 51.0416602,2.4209548 50.9569384,3.2383536 L49.265909,19.5534727 C49.1807159,20.3754194 48.4880528,21 47.6617029,21 L43.0174392,21 C42.1267143,21 41.4046392,20.2779248 41.4046392,19.3872 L41.4046392,1.69541674 C41.4046392,0.804691892 42.1267143,0.0826167362 43.0174392,0.0826167362 C43.1325816,0.0826167362 43.2473929,0.0949471529 43.3599095,0.119397086 Z" id="Rectangle-Copy-4" fill="#36D2AF" fill-rule="nonzero"></path>
            <path d="M35.0420877,3.90853662 L41.2351536,5.84288221 C41.9882279,6.07809783 42.4605956,6.82359554 42.3516759,7.60499409 L40.6783092,19.609857 C40.5672165,20.4068444 39.8856456,21.0000002 39.0809528,21.0000003 L34.5612519,21.0000012 C33.670527,21.0000013 32.9484518,20.2779263 32.9484517,19.3872014 C32.9484517,19.3872013 32.9484517,19.3872012 32.9484517,19.3872011 L32.9484534,5.44799164 C32.9484535,4.5572668 33.6705287,3.83519171 34.5612536,3.8351918 C34.7243178,3.83519181 34.8864391,3.85992125 35.0420877,3.90853662 Z" id="Rectangle-Copy-5" fill="#36D2AF" fill-rule="nonzero"></path>
            <path d="M26.5392488,7.54076808 L32.6825217,9.00964996 C33.1254425,9.11555414 33.4184659,9.5368582 33.3636413,9.98895196 L32.1908291,19.6601724 C32.0980932,20.4248894 31.4490265,21 30.6787071,21 L27.2679073,21 C26.487426,21 25.8332244,20.41006 25.7528131,19.6337321 L24.6699359,9.17914118 C24.5832647,8.34237774 25.1913346,7.59378604 26.028098,7.50711483 C26.1991597,7.48939642 26.3719867,7.50077504 26.5392488,7.54076808 Z" id="Rectangle-Copy-3" fill="#36D2AF" fill-rule="nonzero"></path>
            <path d="M4.10816786,17.9052688 L4.60552039,18.9808167 C4.62252398,19.0507713 4.63102564,19.0944924 4.63102564,19.111981 C4.60126936,19.1994244 4.47905789,19.2912385 4.26438756,19.3874262 C4.04971724,19.4836139 3.86161784,19.5535675 3.70008374,19.5972892 C3.45778258,19.6584996 3.18785463,19.6891043 2.8902918,19.6891043 C2.23990448,19.6891043 1.73618068,19.5076621 1.37910528,19.1447721 C1.02202989,18.7818822 0.843494871,18.2659741 0.843494871,17.5970325 L0.843494871,14.4425292 L0.212239742,14.4425292 C0.0762110209,14.4425292 0.00819768041,14.3703895 0.00819768041,14.226108 L0.00819768041,13.058745 C0.00819768041,12.9144635 0.0762110209,12.8423238 0.212239742,12.8423238 L0.843494871,12.8423238 L0.843494871,11.0716047 C0.843494871,10.9273231 0.911508212,10.8551835 1.04753693,10.8551835 L2.31642351,10.8551835 C2.46520492,10.8551835 2.53959451,10.9273231 2.53959451,11.0716047 L2.53959451,12.8423238 L4.06990997,12.8423238 C4.21444049,12.8423238 4.28670466,12.9144635 4.28670466,13.058745 L4.28670466,14.226108 C4.28670466,14.3703895 4.21869132,14.4425292 4.0826626,14.4425292 L2.53959451,14.4425292 L2.53959451,17.3674948 C2.53959451,17.5992197 2.6012316,17.7653596 2.72450763,17.8659194 C2.84353276,17.9752236 2.99868819,18.0298749 3.18997858,18.0298749 C3.3345091,18.0298749 3.45778328,18.0102005 3.55980482,17.9708509 C3.69158264,17.9358736 3.80422974,17.8921526 3.89774948,17.8396866 C3.94876026,17.8221979 3.97851609,17.8134537 3.98701789,17.8134537 C4.04227955,17.8134537 4.08266248,17.8440584 4.10816786,17.9052688 Z M8.46944112,13.058745 L9.40675934,17.3281455 L9.45776986,17.1510736 C9.46627165,17.1160962 9.47583603,17.0745613 9.48646327,17.0264674 C9.49709051,16.9783736 9.51196843,16.9204432 9.53109747,16.8526746 C9.55022651,16.784906 9.56616714,16.7247896 9.57891983,16.6723236 C9.61717791,16.4712039 9.66818791,16.2416685 9.73195138,15.9837106 C9.74470407,15.9312446 9.77445991,15.8142909 9.82121978,15.6328459 C9.86797965,15.4514009 9.90411174,15.3082146 9.92961712,15.2032826 C9.98487879,14.980302 10.0709582,14.6305338 10.1878579,14.1539676 C10.3047575,13.6774013 10.3929623,13.3167028 10.4524749,13.0718614 C10.4779803,12.9188356 10.5608716,12.8423238 10.7011512,12.8423238 L12.097564,12.8423238 C12.2378437,12.8423238 12.3207349,12.9188356 12.3462403,13.0718614 L13.3919559,17.3281455 L14.3292741,13.058745 C14.3675322,12.9144635 14.4504234,12.8423238 14.5779503,12.8423238 L15.8595895,12.8423238 C15.9828656,12.8423238 16.0253739,12.9144635 15.9871158,13.058745 L14.590703,19.3152858 C14.5609467,19.3939848 14.5311909,19.4486361 14.5014346,19.4792413 C14.4631765,19.5317073 14.4015394,19.5579399 14.3165215,19.5579399 L12.684185,19.5579399 C12.6076688,19.5579399 12.5481571,19.5360794 12.5056482,19.4923577 C12.4461356,19.448636 12.4100035,19.3896127 12.3972508,19.3152858 L11.3897931,14.9343956 L10.4014644,19.3152858 C10.375959,19.477056 10.2803152,19.5579399 10.1145302,19.5579399 L8.46944112,19.5579399 C8.3334124,19.5579399 8.2462703,19.477056 8.20801223,19.3152858 C8.18675774,19.2016095 8.14956294,19.0343765 8.09642672,18.8135821 C8.04329051,18.5927876 8.00609571,18.4342989 7.98484122,18.3381112 C7.97208853,18.281273 7.93914457,18.1348076 7.88600835,17.8987105 C7.83287213,17.6626135 7.7914265,17.472427 7.76167022,17.3281455 C7.72766304,17.1882361 7.67877845,16.9761892 7.61501498,16.6919983 C7.55125152,16.4078074 7.51299402,16.2394814 7.50024132,16.1870154 C7.30895094,15.3519314 7.07940591,14.309185 6.81159937,13.058745 C6.77334129,12.9144635 6.81584963,12.8423238 6.93912565,12.8423238 L8.22076486,12.8423238 C8.34829178,12.8423238 8.43118304,12.9144635 8.46944112,13.058745 Z M21.343276,18.213505 C21.8491328,18.213505 22.3719853,18.084528 22.9118493,17.8265701 C22.9798637,17.7915928 23.0266229,17.7741044 23.0521282,17.7741044 C23.0563791,17.7741044 23.0627554,17.7762904 23.0712572,17.7806626 C23.079759,17.7850348 23.0861352,17.7872208 23.0903861,17.7872208 C23.1286442,17.8003373 23.1690271,17.8353141 23.2115361,17.8921523 L23.7854044,18.7250461 C23.8236625,18.7643956 23.836415,18.8146748 23.8236623,18.8758852 C23.8109096,18.9283512 23.7811538,18.9720722 23.7343939,19.0070495 C23.0032395,19.461755 22.1892048,19.6891043 21.2922655,19.6891043 C20.6801362,19.6891043 20.115838,19.5306156 19.599354,19.2136334 C19.0828699,18.8966513 18.6758526,18.4714643 18.3782898,17.9380598 C18.0807269,17.4046554 17.9319478,16.8253518 17.9319478,16.2001318 C17.9319478,15.5749119 18.065849,14.9967013 18.3336556,14.465483 C18.6014621,13.9342646 18.980849,13.5090776 19.4718277,13.1899094 C19.9628064,12.8707411 20.5122266,12.7111594 21.120105,12.7111594 C21.6344636,12.7111594 22.0988672,12.8160899 22.5133297,13.0259539 C22.9277922,13.235818 23.2667962,13.5178186 23.5303518,13.8719641 C23.7939075,14.2261097 23.9958221,14.6294362 24.1361017,15.0819555 C24.2763813,15.5344749 24.3465201,16.009941 24.3465201,16.5083681 C24.3465201,16.6701383 24.2636288,16.7510222 24.0978438,16.7510222 L19.538779,16.7510222 C19.6237969,17.1926112 19.8342132,17.5467515 20.1700341,17.8134537 C20.505855,18.0801559 20.8969317,18.213505 21.343276,18.213505 Z M19.5770369,15.4590531 L22.7014309,15.4590531 C22.5143915,14.5758752 21.9872881,14.1342929 21.120105,14.1342929 C20.7162697,14.1342929 20.3783284,14.2523397 20.106271,14.4884367 C19.8342135,14.7245338 19.6578039,15.0480693 19.5770369,15.4590531 Z M29.5244177,19.5579399 L28.2427785,19.5579399 C28.1024989,19.5579399 28.0323601,19.4858002 28.0323601,19.3415187 L28.0323601,9.70093693 C28.0323601,9.55665539 28.1024989,9.48451571 28.2427785,9.48451571 L29.5244177,9.48451571 C29.6646973,9.48451571 29.7348361,9.55665539 29.7348361,9.70093693 L29.7348361,19.3415187 C29.7348361,19.4858002 29.6646973,19.5579399 29.5244177,19.5579399 Z M35.1819966,13.058745 L36.6421726,17.1969811 L38.0959723,13.058745 C38.1427322,12.9144635 38.223498,12.8423238 38.3382722,12.8423238 L39.6709219,12.8423238 C39.7389363,12.8423238 39.7878209,12.8641843 39.8175772,12.907906 C39.8345808,12.9559998 39.8303299,13.006279 39.8048246,13.058745 L37.5986198,19.3152858 C37.5306054,19.477056 37.4477141,19.5579399 37.3499435,19.5579399 L35.940778,19.5579399 C35.9195235,19.5579399 35.8833914,19.5448236 35.8323807,19.5185906 C35.7686172,19.4923576 35.7176072,19.42459 35.6793491,19.3152858 L33.4858969,13.058745 C33.4263844,12.9144635 33.4688927,12.8423238 33.6134232,12.8423238 L34.946073,12.8423238 C35.0650981,12.8423238 35.1437385,12.9144635 35.1819966,13.058745 Z M45.3800569,18.213505 C45.8859137,18.213505 46.4087662,18.084528 46.9486302,17.8265701 C47.0166446,17.7915928 47.0634037,17.7741044 47.0889091,17.7741044 C47.09316,17.7741044 47.0995363,17.7762904 47.1080381,17.7806626 C47.1165399,17.7850348 47.1229161,17.7872208 47.127167,17.7872208 C47.1654251,17.8003373 47.205808,17.8353141 47.248317,17.8921523 L47.8221853,18.7250461 C47.8604434,18.7643956 47.8731959,18.8146748 47.8604432,18.8758852 C47.8476905,18.9283512 47.8179346,18.9720722 47.7711748,19.0070495 C47.0400204,19.461755 46.2259857,19.6891043 45.3290463,19.6891043 C44.7169171,19.6891043 44.1526189,19.5306156 43.6361349,19.2136334 C43.1196508,18.8966513 42.7126335,18.4714643 42.4150706,17.9380598 C42.1175078,17.4046554 41.9687286,16.8253518 41.9687286,16.2001318 C41.9687286,15.5749119 42.1026299,14.9967013 42.3704364,14.465483 C42.638243,13.9342646 43.0176299,13.5090776 43.5086086,13.1899094 C43.9995872,12.8707411 44.5490075,12.7111594 45.1568859,12.7111594 C45.6712445,12.7111594 46.135648,12.8160899 46.5501106,13.0259539 C46.9645731,13.235818 47.3035771,13.5178186 47.5671327,13.8719641 C47.8306884,14.2261097 48.032603,14.6294362 48.1728826,15.0819555 C48.3131622,15.5344749 48.383301,16.009941 48.383301,16.5083681 C48.383301,16.6701383 48.3004097,16.7510222 48.1346247,16.7510222 L43.5755599,16.7510222 C43.6605778,17.1926112 43.8709941,17.5467515 44.206815,17.8134537 C44.5426359,18.0801559 44.9337126,18.213505 45.3800569,18.213505 Z M43.6576322,15.4590531 L46.7820263,15.4590531 C46.5949868,14.5758752 46.0678834,14.1342929 45.2007003,14.1342929 C44.796865,14.1342929 44.4589237,14.2523397 44.1868663,14.4884367 C43.9148088,14.7245338 43.7383992,15.0480693 43.6576322,15.4590531 Z" id="twelve" fill="#1E3444"></path>
        </g>
    </g>
</svg>