<?xml version="1.0" encoding="UTF-8"?>
<svg width="117px" height="47px" viewBox="0 0 117 47" version="1.1" xmlns="http://www.w3.org/2000/svg" xmlns:xlink="http://www.w3.org/1999/xlink">
    <!-- Generator: sketchtool 53 (72520) - https://sketchapp.com -->
    <title>7D9C190C-EAC9-4B35-86D6-147F778D73C8</title>
    <desc>Created with sketchtool.</desc>
    <defs>
        <linearGradient x1="39.0095482%" y1="0%" x2="60.7749528%" y2="100%" id="linearGradient-1">
            <stop stop-color="#69FF97" offset="0%"></stop>
            <stop stop-color="#00E4FF" offset="100%"></stop>
        </linearGradient>
        <linearGradient x1="34.0379866%" y1="0%" x2="65.6490327%" y2="100%" id="linearGradient-2">
            <stop stop-color="#69FF97" offset="0%"></stop>
            <stop stop-color="#00E4FF" offset="100%"></stop>
        </linearGradient>
        <linearGradient x1="28.1245239%" y1="0%" x2="71.4465452%" y2="100%" id="linearGradient-3">
            <stop stop-color="#69FF97" offset="0%"></stop>
            <stop stop-color="#00E4FF" offset="100%"></stop>
        </linearGradient>
    </defs>
    <g id="Page-1" stroke="none" stroke-width="1" fill="none" fill-rule="evenodd">
        <g id="Landing--Copy-3" transform="translate(-152.000000, -8.000000)">
            <g id="Group" transform="translate(152.500000, 8.000000)">
                <path d="M98.528001,0.247007718 L113.073866,3.35723107 C114.874361,3.74221629 116.09419,5.42370695 115.901316,7.25477143 L112.054257,43.7771174 C111.861274,45.6092156 110.316298,47 108.474064,47 L97.7752577,47 C95.7870326,47 94.1752577,45.3882251 94.1752577,43.4 L94.1752577,3.76743065 C94.1752577,1.77920555 95.7870326,0.167430648 97.7752577,0.167430648 C98.0282714,0.167430648 98.2805801,0.19410374 98.528001,0.247007718 Z" id="Rectangle-Copy-4" fill="url(#linearGradient-1)" fill-rule="nonzero"></path>
                <path d="M79.5991818,8.71559394 L93.8208119,13.08647 C95.512997,13.6065462 96.5759238,15.2797425 96.3276241,17.0325451 L92.5209177,43.9049309 C92.2694137,45.6803529 90.7496517,47.0000005 88.9565043,47.0000007 L78.5415768,47.0000028 C76.5533517,47.000003 74.9415766,45.3882283 74.9415764,43.4000032 C74.9415764,43.4000029 74.9415764,43.4000027 74.9415764,43.4000024 L74.9415803,12.1567386 C74.9415805,10.1685135 76.5533555,8.55673875 78.5415806,8.55673894 C78.9000573,8.55673898 79.2565235,8.61028132 79.5991818,8.71559394 Z" id="Rectangle-Copy-5" fill="url(#linearGradient-2)" fill-rule="nonzero"></path>
                <path d="M60.2695385,16.854784 L74.3584001,20.1695564 C75.3520535,20.4033393 76.0101954,21.3479106 75.8853371,22.3610305 L73.2165649,44.0158743 C73.0065554,45.7199253 71.559038,47 69.8420948,47 L61.9577934,47 C60.2178158,47 58.7586266,45.6863494 58.5764753,43.9559323 L56.1095432,20.520348 C55.9129672,18.6528976 57.2674785,16.9796736 59.1349289,16.7830976 C59.514475,16.7431449 59.8980391,16.7673791 60.2695385,16.854784 Z" id="Rectangle-Copy-3" fill="url(#linearGradient-3)" fill-rule="nonzero"></path>
                <path d="M9.34406808,40.0736967 L10.4753013,42.4808754 C10.5139761,42.6374406 10.5333132,42.7352924 10.5333132,42.7744337 C10.4656323,42.9701403 10.1876611,43.1756291 9.69939132,43.3909063 C9.21112156,43.6061835 8.78328764,43.7627464 8.41587674,43.8605997 C7.86476037,43.9975943 7.25080661,44.0660906 6.57399704,44.0660906 C5.0946847,44.0660906 3.94895997,43.6600055 3.13678849,42.8478233 C2.324617,42.0356411 1.91853735,40.8809897 1.91853735,39.3838346 L1.91853735,32.3237558 L0.482741375,32.3237558 C0.173342714,32.3237558 0.0186457045,32.1623003 0.0186457045,31.8393845 L0.0186457045,29.226715 C0.0186457045,28.9037992 0.173342714,28.7423437 0.482741375,28.7423437 L1.91853735,28.7423437 L1.91853735,24.7793057 C1.91853735,24.4563899 2.07323436,24.2949344 2.38263302,24.2949344 L5.26872797,24.2949344 C5.60713276,24.2949344 5.77633261,24.4563899 5.77633261,24.7793057 L5.77633261,28.7423437 L9.25705014,28.7423437 C9.58578621,28.7423437 9.75015179,28.9037992 9.75015179,29.226715 L9.75015179,31.8393845 C9.75015179,32.1623003 9.59545478,32.3237558 9.28605612,32.3237558 L5.77633261,32.3237558 L5.77633261,38.8701074 C5.77633261,39.3887298 5.91652678,39.7605667 6.19691931,39.9856292 C6.46764314,40.2302624 6.82054569,40.3525772 7.25563756,40.3525772 C7.58437364,40.3525772 7.86476197,40.3085439 8.09681096,40.2204759 C8.39654091,40.1421933 8.65275784,40.0443415 8.86546942,39.9269176 C8.98149391,39.8877762 9.04917386,39.8682059 9.06851127,39.8682059 C9.19420448,39.8682059 9.28605583,39.9367021 9.34406808,40.0736967 Z M19.2638269,29.226715 L21.3957663,38.7820399 L21.5117903,38.3857361 C21.5311277,38.3074535 21.5528819,38.2144943 21.5770537,38.1068557 C21.6012255,37.9992171 21.6350655,37.8695634 21.6785746,37.7178908 C21.7220838,37.5662182 21.7583409,37.431672 21.7873471,37.3142481 C21.8743654,36.864123 21.9903882,36.350401 22.1354188,35.7730666 C22.1644249,35.6556427 22.2321049,35.3938891 22.3384607,34.987798 C22.4448165,34.5817069 22.5269992,34.2612422 22.5850115,34.0263943 C22.7107047,33.5273426 22.9064931,32.7445281 23.1723826,31.6779274 C23.4382721,30.6113266 23.6388947,29.8040492 23.7742567,29.2560708 C23.8322689,28.9135844 24.0208059,28.7423437 24.3398732,28.7423437 L27.516028,28.7423437 C27.8350954,28.7423437 28.0236323,28.9135844 28.0816446,29.2560708 L30.4601349,38.7820399 L32.5920744,29.226715 C32.6790928,28.9037992 32.8676297,28.7423437 33.157691,28.7423437 L36.0727919,28.7423437 C36.3531844,28.7423437 36.4498701,28.9037992 36.3628517,29.226715 L33.186697,43.2294492 C33.119016,43.4055851 33.0513361,43.5278999 32.9836551,43.5963972 C32.8966367,43.7138211 32.7564426,43.7725322 32.5630684,43.7725322 L28.850303,43.7725322 C28.6762663,43.7725322 28.5409064,43.7236063 28.4442193,43.625753 C28.3088574,43.5278997 28.2266746,43.3957998 28.1976685,43.2294492 L25.9061961,33.4245997 L23.6582327,43.2294492 C23.6002205,43.5915063 23.3826778,43.7725322 23.0055982,43.7725322 L19.2638269,43.7725322 C18.9544282,43.7725322 18.7562227,43.5915063 18.6692043,43.2294492 C18.6208607,42.9750307 18.5362608,42.6007475 18.415402,42.1065884 C18.2945431,41.6124294 18.2099432,41.2577166 18.1615996,41.0424394 C18.1325935,40.9152301 18.0576622,40.5874265 17.9368033,40.0590188 C17.8159444,39.5306111 17.721676,39.1049557 17.653995,38.7820399 C17.5766453,38.4689094 17.4654569,37.9943281 17.3204262,37.3582818 C17.1753956,36.7222355 17.0883785,36.345506 17.0593724,36.2280821 C16.6242806,34.3590845 16.1021782,32.0253188 15.4930495,29.226715 C15.4060312,28.9037992 15.5027168,28.7423437 15.7831093,28.7423437 L18.6982103,28.7423437 C18.9882715,28.7423437 19.1768085,28.9037992 19.2638269,29.226715 Z M48.5454905,40.7635589 C49.6960667,40.7635589 50.8853,40.4748961 52.1132259,39.8975617 C52.2679252,39.8192791 52.3742794,39.7801384 52.4322917,39.7801384 C52.4419604,39.7801384 52.4564632,39.785031 52.4758007,39.7948163 C52.4951381,39.8046016 52.5096409,39.8094942 52.5193096,39.8094942 C52.606328,39.8388502 52.6981793,39.9171316 52.7948664,40.0443409 L54.1001355,41.9084365 C54.1871539,41.9965045 54.2161596,42.1090341 54.1871534,42.2460287 C54.1581473,42.3634526 54.0904674,42.4613044 53.9841116,42.539587 C52.3210938,43.5572611 50.469564,44.0660906 48.4294665,44.0660906 C47.0371726,44.0660906 45.7536708,43.7113777 44.5789228,43.0019415 C43.4041747,42.2925052 42.4784098,41.3408963 41.8016002,40.1470863 C41.1247907,38.9532763 40.786391,37.6567398 40.786391,36.2574379 C40.786391,34.8581361 41.0909507,33.5640458 41.7000793,32.3751285 C42.3092079,31.1862112 43.1721272,30.2346023 44.288863,29.5202734 C45.4055988,28.8059444 46.6552605,28.4487853 48.0378858,28.4487853 C49.2077995,28.4487853 50.26409,28.6836297 51.2067891,29.1533254 C52.1494881,29.6230211 52.920556,30.2541653 53.5200159,31.0467769 C54.1194758,31.8393884 54.5787326,32.7420714 54.8977999,33.7548528 C55.2168673,34.7676343 55.3763986,35.8317727 55.3763986,36.9473001 C55.3763986,37.3093572 55.1878616,37.4903831 54.810782,37.4903831 L44.4411444,37.4903831 C44.6345185,38.4787012 45.1131124,39.2713009 45.8769403,39.8682059 C46.6407683,40.4651109 47.5302761,40.7635589 48.5454905,40.7635589 Z M44.5281623,34.5988332 L51.6346273,34.5988332 C51.2092041,32.6221969 50.0103023,31.6338936 48.0378858,31.6338936 C47.1193585,31.6338936 46.3507078,31.8980935 45.7319105,32.4265012 C45.1131131,32.9549089 44.7118678,33.6790123 44.5281623,34.5988332 Z M67.1535775,43.7725322 L64.2384766,43.7725322 C63.9194092,43.7725322 63.7598779,43.6110767 63.7598779,43.2881609 L63.7598779,21.7116208 C63.7598779,21.3887049 63.9194092,21.2272494 64.2384766,21.2272494 L67.1535775,21.2272494 C67.4726449,21.2272494 67.6321761,21.3887049 67.6321761,21.7116208 L67.6321761,43.2881609 C67.6321761,43.6110767 67.4726449,43.7725322 67.1535775,43.7725322 Z M80.0217962,29.226715 L83.3429808,38.4884815 L86.6496625,29.226715 C86.7560182,28.9037992 86.9397209,28.7423437 87.2007761,28.7423437 L90.2319009,28.7423437 C90.3866002,28.7423437 90.4977887,28.7912696 90.5654697,28.8891229 C90.6041445,28.9967615 90.5944759,29.1092911 90.5364637,29.226715 L85.5184293,43.2294492 C85.3637299,43.5915063 85.1751929,43.7725322 84.9528127,43.7725322 L81.7476519,43.7725322 C81.6993084,43.7725322 81.6171256,43.7431766 81.5011011,43.6844647 C81.3560705,43.6257527 81.2400477,43.4740824 81.1530294,43.2294492 L76.1640009,29.226715 C76.028639,28.9037992 76.1253246,28.7423437 76.4540607,28.7423437 L79.4851855,28.7423437 C79.7559094,28.7423437 79.9347778,28.9037992 80.0217962,29.226715 Z M103.217384,40.7635589 C104.36796,40.7635589 105.557194,40.4748961 106.78512,39.8975617 C106.939819,39.8192791 107.046173,39.7801384 107.104185,39.7801384 C107.113854,39.7801384 107.128357,39.785031 107.147694,39.7948163 C107.167032,39.8046016 107.181535,39.8094942 107.191203,39.8094942 C107.278222,39.8388502 107.370073,39.9171316 107.46676,40.0443409 L108.772029,41.9084365 C108.859048,41.9965045 108.888053,42.1090341 108.859047,42.2460287 C108.830041,42.3634526 108.762361,42.4613044 108.656005,42.539587 C106.992988,43.5572611 105.141458,44.0660906 103.10136,44.0660906 C101.709066,44.0660906 100.425565,43.7113777 99.2508165,43.0019415 C98.0760685,42.2925052 97.1503036,41.3408963 96.473494,40.1470863 C95.7966844,38.9532763 95.4582847,37.6567398 95.4582847,36.2574379 C95.4582847,34.8581361 95.7628445,33.5640458 96.3719731,32.3751285 C96.9811017,31.1862112 97.844021,30.2346023 98.9607567,29.5202734 C100.077493,28.8059444 101.327154,28.4487853 102.70978,28.4487853 C103.879693,28.4487853 104.935984,28.6836297 105.878683,29.1533254 C106.821382,29.6230211 107.59245,30.2541653 108.19191,31.0467769 C108.79137,31.8393884 109.250626,32.7420714 109.569694,33.7548528 C109.888761,34.7676343 110.048292,35.8317727 110.048292,36.9473001 C110.048292,37.3093572 109.859755,37.4903831 109.482676,37.4903831 L99.1130381,37.4903831 C99.3064123,38.4787012 99.7850062,39.2713009 100.548834,39.8682059 C101.312662,40.4651109 102.20217,40.7635589 103.217384,40.7635589 Z M99.2997124,34.5988332 L106.406177,34.5988332 C105.980754,32.6221969 104.781852,31.6338936 102.809436,31.6338936 C101.890909,31.6338936 101.122258,31.8980935 100.503461,32.4265012 C99.8846633,32.9549089 99.4834179,33.6790123 99.2997124,34.5988332 Z" id="twelve" fill="#1E3444"></path>
            </g>
        </g>
    </g>
</svg>