<?xml version="1.0" encoding="UTF-8"?>
<svg width="141px" height="33px" viewBox="0 0 141 33" version="1.1" xmlns="http://www.w3.org/2000/svg" xmlns:xlink="http://www.w3.org/1999/xlink">
    <!-- Generator: sketchtool 53 (72520) - https://sketchapp.com -->
    <title>319CC408-EBEE-4244-ABF1-73A67E3F4206</title>
    <desc>Created with sketchtool.</desc>
    <defs>
        <linearGradient x1="-1%" y1="0.474384648%" x2="100%" y2="99.5256154%" id="linearGradient-1">
            <stop stop-color="#69FF97" offset="0%"></stop>
            <stop stop-color="#00E4FF" offset="100%"></stop>
        </linearGradient>
    </defs>
    <g id="Page-1" stroke="none" stroke-width="1" fill="none" fill-rule="evenodd">
        <g id="Log_in" transform="translate(-647.000000, -24.000000)">
            <g id="Group-Copy-2" transform="translate(647.500000, 24.000000)">
                <ellipse id="Oval" fill="url(#linearGradient-1)" cx="8.55128594" cy="5.55978261" rx="5.58634654" ry="5.55978261"></ellipse>
                <ellipse id="Oval-Copy" fill="url(#linearGradient-1)" transform="translate(25.310326, 5.595652) scale(-1, 1) translate(-25.310326, -5.595652) " cx="25.3103256" cy="5.59565217" rx="5.58634654" ry="5.55978261"></ellipse>
                <path d="M16.555763,22.7748193 L1.19431662,32.7692195 C0.861007521,32.9860757 0.415010437,32.891672 0.198154255,32.5583629 C0.122131473,32.4415154 0.0816637736,32.3051115 0.0816637736,32.16571 L0.0816637736,12.2158955 C0.0816637736,11.8182505 0.404018754,11.4958955 0.801663774,11.4958955 C0.94106529,11.4958955 1.0774692,11.5363632 1.19431662,11.612386 L16.4524511,21.5395699 C16.467795,21.5485864 16.4833561,21.557981 16.4991345,21.5677536 C16.7363172,21.7146568 17.0370194,21.7113085 17.2708721,21.5591602 L32.559172,11.612386 C32.6760195,11.5363632 32.8124234,11.4958955 32.9518249,11.4958955 C33.3494699,11.4958955 33.6718249,11.8182505 33.6718249,12.2158955 L33.6718249,32.16571 C33.6718249,32.3051115 33.6313572,32.4415154 33.5553344,32.5583629 C33.3384782,32.891672 32.8924811,32.9860757 32.559172,32.7692195 L17.2644744,22.8182471 C17.0506916,22.6791566 16.7813242,22.6645479 16.555763,22.7748193 Z" id="Combined-Shape" fill="#1E3444"></path>
                <path d="M48.338293,23.3492008 L49.3653665,25.5268246 C49.4004803,25.6684594 49.418037,25.7569798 49.418037,25.7923885 C49.3565878,25.969432 49.1042112,26.1553248 48.6608994,26.3500727 C48.2175877,26.5448205 47.8291471,26.6864531 47.495566,26.7749749 C46.9951944,26.8989053 46.4377712,26.9608696 45.8232797,26.9608696 C44.4801768,26.9608696 43.4399461,26.5935099 42.7025563,25.8587795 C41.9651665,25.1240491 41.5964771,24.0795083 41.5964771,22.7251257 L41.5964771,16.3383145 L40.2928838,16.3383145 C40.0119734,16.3383145 39.8715203,16.1922558 39.8715203,15.9001341 L39.8715203,13.5366156 C39.8715203,13.2444939 40.0119734,13.0984352 40.2928838,13.0984352 L41.5964771,13.0984352 L41.5964771,9.5133229 C41.5964771,9.22120118 41.7369302,9.07514251 42.0178406,9.07514251 L44.6381948,9.07514251 C44.9454406,9.07514251 45.0990612,9.22120118 45.0990612,9.5133229 L45.0990612,13.0984352 L48.2592874,13.0984352 C48.5577547,13.0984352 48.7069861,13.2444939 48.7069861,13.5366156 L48.7069861,15.9001341 C48.7069861,16.1922558 48.566533,16.3383145 48.2856226,16.3383145 L45.0990612,16.3383145 L45.0990612,22.260389 C45.0990612,22.7295542 45.2263468,23.0659317 45.4809218,23.2695317 C45.7267184,23.490836 46.047127,23.6014865 46.4421573,23.6014865 C46.7406246,23.6014865 46.9951958,23.5616523 47.2058786,23.4819828 C47.4780106,23.4111654 47.710636,23.322645 47.9037619,23.2164189 C48.0091033,23.1810102 48.0705515,23.1633061 48.0881084,23.1633061 C48.2022283,23.1633061 48.2856223,23.2252704 48.338293,23.3492008 Z M57.3446778,13.5366156 L59.2803164,22.1807198 L59.3856573,21.8222086 C59.4032142,21.7513912 59.4229654,21.6672968 59.4449115,21.5699229 C59.4668576,21.472549 59.4975817,21.3552594 59.5370848,21.2180507 C59.5765878,21.0808421 59.6095065,20.9591265 59.6358418,20.8529004 C59.7148479,20.4457004 59.8201877,19.9809683 59.9518644,19.4586901 C59.9781998,19.352464 60.039648,19.1156719 60.136211,18.7483067 C60.2327739,18.3809415 60.3073896,18.0910372 60.3600603,17.878585 C60.4741802,17.4271242 60.6519411,16.7189609 60.8933485,15.754074 C61.1347559,14.7891871 61.316906,14.0588937 61.4398043,13.563172 C61.492475,13.2533459 61.6636522,13.0984352 61.953341,13.0984352 L64.8370474,13.0984352 C65.1267363,13.0984352 65.2979135,13.2533459 65.3505842,13.563172 L67.5100721,22.1807198 L69.4457106,13.5366156 C69.5247167,13.2444939 69.6958939,13.0984352 69.9592474,13.0984352 L72.6059368,13.0984352 C72.8605119,13.0984352 72.9482951,13.2444939 72.869289,13.5366156 L69.9855826,26.2040125 C69.9241335,26.3633516 69.8626852,26.4740021 69.8012361,26.5359674 C69.72223,26.6421934 69.5949444,26.6953057 69.4193754,26.6953057 L66.0484675,26.6953057 C65.8904554,26.6953057 65.7675589,26.6510455 65.6797744,26.5625238 C65.5568761,26.474002 65.4822604,26.3544995 65.4559251,26.2040125 L63.3754428,17.3341791 L61.3344634,26.2040125 C61.2817927,26.5315429 61.0842805,26.6953057 60.741921,26.6953057 L57.3446778,26.6953057 C57.0637674,26.6953057 56.8838119,26.5315429 56.8048059,26.2040125 C56.7609136,25.973856 56.6841033,25.6352655 56.5743727,25.1882307 C56.4646421,24.7411959 56.3878318,24.4203095 56.3439395,24.2255616 C56.3176042,24.1104834 56.2495722,23.81394 56.1398416,23.3359227 C56.030111,22.8579053 55.9445224,22.4728415 55.8830732,22.1807198 C55.8128456,21.8974502 55.711895,21.4681263 55.5802182,20.892735 C55.4485415,20.3173437 55.3695366,19.9765402 55.3432013,19.8703141 C54.948171,18.1795489 54.4741418,16.0683372 53.9210995,13.5366156 C53.8420934,13.2444939 53.9298766,13.0984352 54.1844516,13.0984352 L56.8311411,13.0984352 C57.0944946,13.0984352 57.2656718,13.2444939 57.3446778,13.5366156 Z M83.9301963,23.973276 C84.9748319,23.973276 86.054565,23.7121408 87.1694282,23.1898625 C87.3098834,23.1190451 87.4064449,23.083637 87.4591156,23.083637 C87.467894,23.083637 87.4810615,23.088063 87.4986184,23.0969152 C87.5161753,23.1057673 87.5293428,23.1101934 87.5381212,23.1101934 C87.6171273,23.1367499 87.7005213,23.2075662 87.7883058,23.3226445 L88.9733906,25.0089751 C89.0523967,25.0886446 89.0787316,25.1904431 89.0523963,25.3143735 C89.0260609,25.4205996 88.9646127,25.50912 88.8680498,25.5799374 C87.3581564,26.5005634 85.6771084,26.9608696 83.8248555,26.9608696 C82.5607587,26.9608696 81.3954369,26.6399831 80.3288552,25.9982005 C79.2622736,25.3564179 78.4217496,24.495557 77.8072581,23.4155918 C77.1927666,22.3356267 76.8855255,21.1627313 76.8855255,19.8968705 C76.8855255,18.6310097 77.1620425,17.4603273 77.7150848,16.3847882 C78.2681272,15.3092491 79.0515921,14.4483882 80.0655031,13.8021795 C81.079414,13.1559708 82.2140117,12.8328714 83.46933,12.8328714 C84.5315225,12.8328714 85.4905537,13.0453203 86.3464526,13.4702247 C87.2023515,13.895129 87.9024224,14.4660856 88.4466863,15.1831117 C88.9909502,15.9001377 89.4079203,16.7167385 89.6976091,17.6329384 C89.987298,18.5491384 90.1321402,19.5117978 90.1321402,20.5209456 C90.1321402,20.848476 89.960963,21.0122387 89.6186035,21.0122387 L80.203763,21.0122387 C80.379332,21.9063083 80.8138587,22.6233236 81.5073563,23.1633061 C82.2008538,23.7032887 83.0084591,23.973276 83.9301963,23.973276 Z M80.2827686,18.3964346 L86.7348971,18.3964346 C86.3486453,16.6082955 85.2601338,15.7142394 83.46933,15.7142394 C82.6353773,15.7142394 81.937501,15.9532445 81.3756802,16.4312619 C80.8138594,16.9092792 80.4495592,17.5643303 80.2827686,18.3964346 Z M100.824921,26.6953057 L98.1782315,26.6953057 C97.8885427,26.6953057 97.7437004,26.549247 97.7437004,26.2571253 L97.7437004,6.7381804 C97.7437004,6.44605867 97.8885427,6.3 98.1782315,6.3 L100.824921,6.3 C101.11461,6.3 101.259452,6.44605867 101.259452,6.7381804 L101.259452,26.2571253 C101.259452,26.549247 101.11461,26.6953057 100.824921,26.6953057 Z M112.508283,13.5366156 L115.523665,21.9151559 L118.52588,13.5366156 C118.622443,13.2444939 118.789231,13.0984352 119.026249,13.0984352 L121.778279,13.0984352 C121.918735,13.0984352 122.019685,13.1426954 122.081134,13.2312172 C122.116248,13.3285911 122.10747,13.4303895 122.054799,13.5366156 L117.498806,26.2040125 C117.358351,26.5315429 117.187174,26.6953057 116.98527,26.6953057 L114.075228,26.6953057 C114.031336,26.6953057 113.95672,26.6687496 113.851379,26.6156365 C113.719702,26.5625235 113.614362,26.4253169 113.535356,26.2040125 L109.005699,13.5366156 C108.8828,13.2444939 108.970583,13.0984352 109.269051,13.0984352 L112.021081,13.0984352 C112.266878,13.0984352 112.429277,13.2444939 112.508283,13.5366156 Z M133.568108,23.973276 C134.612744,23.973276 135.692477,23.7121408 136.80734,23.1898625 C136.947795,23.1190451 137.044357,23.083637 137.097028,23.083637 C137.105806,23.083637 137.118974,23.088063 137.136531,23.0969152 C137.154087,23.1057673 137.167255,23.1101934 137.176033,23.1101934 C137.255039,23.1367499 137.338433,23.2075662 137.426218,23.3226445 L138.611303,25.0089751 C138.690309,25.0886446 138.716644,25.1904431 138.690308,25.3143735 C138.663973,25.4205996 138.602525,25.50912 138.505962,25.5799374 C136.996068,26.5005634 135.315021,26.9608696 133.462768,26.9608696 C132.198671,26.9608696 131.033349,26.6399831 129.966767,25.9982005 C128.900186,25.3564179 128.059662,24.495557 127.44517,23.4155918 C126.830679,22.3356267 126.523438,21.1627313 126.523438,19.8968705 C126.523438,18.6310097 126.799955,17.4603273 127.352997,16.3847882 C127.906039,15.3092491 128.689504,14.4483882 129.703415,13.8021795 C130.717326,13.1559708 131.851924,12.8328714 133.107242,12.8328714 C134.169435,12.8328714 135.128466,13.0453203 135.984365,13.4702247 C136.840264,13.895129 137.540334,14.4660856 138.084598,15.1831117 C138.628862,15.9001377 139.045832,16.7167385 139.335521,17.6329384 C139.62521,18.5491384 139.770052,19.5117978 139.770052,20.5209456 C139.770052,20.848476 139.598875,21.0122387 139.256516,21.0122387 L129.841675,21.0122387 C130.017244,21.9063083 130.451771,22.6233236 131.145268,23.1633061 C131.838766,23.7032887 132.646371,23.973276 133.568108,23.973276 Z M130.011161,18.3964346 L136.46329,18.3964346 C136.077038,16.6082955 134.988526,15.7142394 133.197723,15.7142394 C132.36377,15.7142394 131.665893,15.9532445 131.104073,16.4312619 C130.542252,16.9092792 130.177952,17.5643303 130.011161,18.3964346 Z" id="twelve" fill="#1E3444"></path>
            </g>
        </g>
    </g>
</svg>