<svg xmlns="http://www.w3.org/2000/svg" viewBox="0 0 45 45">
  <defs>
    <style>
      .cls-1 {
        fill: #1ca6f7;
      }

      .cls-2 {
        fill: #56267d;
      }

      .cls-3 {
        fill: #fff;
      }

      .cls-4 {
        fill: #9b9c9e;
      }

      .cls-5 {
        fill: #ececed;
      }

      .cls-6 {
        fill: #403f41;
      }

      .cls-7 {
        fill: #7947a8;
      }
    </style>
  </defs>
  <title>security2</title>
  <g id="Layer_2" data-name="Layer 2">
    <g id="Layer_2-2" data-name="Layer 2">
      <circle class="cls-1" cx="22.5" cy="22.5" r="22.5"/>
      <g>
        <g>
          <path class="cls-2" d="M17.34,38.12A1.39,1.39,0,0,1,16,39.51H12.4A1.39,1.39,0,0,1,11,38.12h0a1.39,1.39,0,0,1,1.39-1.39H16a1.39,1.39,0,0,1,1.39,1.39Z"/>
          <path class="cls-2" d="M35,38.12a1.39,1.39,0,0,1-1.39,1.39H30a1.39,1.39,0,0,1-1.39-1.39h0A1.39,1.39,0,0,1,30,36.73H33.6A1.39,1.39,0,0,1,35,38.12Z"/>
        </g>
        <rect class="cls-3" x="7" y="6.88" width="32" height="31.24" rx="2.88" ry="2.88"/>
        <rect class="cls-4" x="9.03" y="8.91" width="27.94" height="27.18" rx="0.85" ry="0.85"/>
        <rect class="cls-3" x="9.54" y="9.42" width="26.92" height="26.17" rx="0.34" ry="0.34"/>
        <g>
          <path class="cls-3" d="M9.93,9.42a.34.34,0,0,0-.34.34v20.5L30.43,9.42Z"/>
          <path class="cls-3" d="M15.68,35.58h20.5a.34.34,0,0,0,.34-.34V14.74Z"/>
          <path class="cls-5" d="M36.52,9.76a.34.34,0,0,0-.34-.34H30.43L9.59,30.26v5a.34.34,0,0,0,.34.34h5.74L36.52,14.74Z"/>
        </g>
        <path class="cls-6" d="M10,16.81a.68.68,0,0,1-.68.68h0a.68.68,0,0,1-.68-.68v-4.1A.68.68,0,0,1,9.31,12h0a.68.68,0,0,1,.68.68Z"/>
        <path class="cls-6" d="M10,31.79a.68.68,0,0,1-.68.68h0a.68.68,0,0,1-.68-.68v-4.1A.68.68,0,0,1,9.31,27h0a.68.68,0,0,1,.68.68Z"/>
        <g>
          <circle class="cls-6" cx="23" cy="22.5" r="5.74"/>
          <path class="cls-6" d="M23,29.33a6.83,6.83,0,1,1,6.83-6.83A6.84,6.84,0,0,1,23,29.33Zm0-11.48a4.65,4.65,0,1,0,4.65,4.65A4.65,4.65,0,0,0,23,17.85Z"/>
        </g>
        <path class="cls-5" d="M23,28.87h-.28l.05-1.27H23Zm1.14-.1-.23-1.25.22,0,.28,1.24Zm-2.55-.05-.28-.07.34-1.22.22.06Zm3.92-.36L25,27.19l.21-.09.55,1.14Zm-5.27-.11L20,28.12l.6-1.12.2.1Zm6.51-.59-.75-1,.18-.14.79,1ZM19,27.49l-.22-.18.84-1,.18.15Zm8.77-.8-1-.84.15-.18,1,.79ZM18,26.48l-.17-.23,1-.75.14.18Zm10.59-1-1.12-.6.11-.21,1.14.55Zm-11.35-.24L17.14,25l1.17-.5.1.21Zm11.88-1.08-1.22-.34.06-.22,1.24.28Zm-12.36-.26q0-.14-.06-.28L18,23.42l0,.22Zm12.58-1.15-1.27-.06q0-.11,0-.23l1.27,0v0C29.37,22.59,29.37,22.69,29.37,22.78Zm-12.74-.27h0q0-.14,0-.27l1.27.05q0,.11,0,.22ZM28,21.57l0-.22,1.24-.29.06.28Zm-10-.19-1.24-.28.07-.28,1.23.33Zm9.67-.9-.1-.21,1.14-.56.12.26Zm-9.29-.18-1.14-.55.13-.25,1.12.6Zm8.72-.81L27,19.3l1-.8.17.23ZM19,19.33l-1-.79.18-.22,1,.84Zm7.34-.68-.18-.15.79-1,.22.18Zm-6.54-.13-.79-1,.23-.17.75,1ZM25.4,18l-.21-.1.55-1.14.25.13Zm-4.63-.09-.55-1.14.26-.12.5,1.17Zm3.57-.33-.22-.05.28-1.24.28.07Zm-2.49,0-.29-1.24.28-.06.23,1.25Zm1.36-.13H23l0-1.27h.28Z"/>
        <circle class="cls-7" cx="23" cy="22.5" r="4.76" transform="matrix(0.07, -1, 1, 0.07, -1.16, 43.75)"/>
        <circle class="cls-7" cx="23" cy="22.5" r="3.31"/>
        <circle class="cls-2" cx="23" cy="22.5" r="2.84"/>
      </g>
    </g>
  </g>
</svg>
