<?xml version="1.0" ?><svg id="Layer_1" style="enable-background:new 0 0 30 30;" version="1.1" viewBox="0 0 30 30" xml:space="preserve" xmlns="http://www.w3.org/2000/svg" xmlns:xlink="http://www.w3.org/1999/xlink"><style type="text/css">
	.st0{fill:#5EA3D7;}
	.st1{fill:#D8D2D2;}
</style><path class="st0" d="M25.14505,2H4.855011C3.7450256,2,2.8450012,2.8999634,2.8450012,4.0100098v19.8999634  c0,1.1000366,0.9000244,2,2.0100098,2h1.0499878V27c0,0.5599976,0.4400024,1,1,1c0.5500488,0,1-0.4400024,1-1v-1.0900269h13.9200439  V27c0,0.5599976,0.4500122,1,1,1s1-0.4400024,1-1v-1.0900269H25.14505c1.1099854,0,2.0099487-0.8999634,2.0099487-2V4.0100098  C27.1549988,2.8999634,26.2550354,2,25.14505,2z M18.7550354,16.2999878l1.0599976,1.0599976  c0.4000244,0.3900146,0.4000244,1.0299683,0,1.4199829c-0.1900024,0.1900024-0.4500122,0.2900391-0.7000122,0.2900391  c-0.2600098,0-0.5100098-0.1000366-0.710022-0.2900391l-1.0699463-1.0700073  c-0.710022,0.4400024-1.5300293,0.6700439-2.3400269,0.6700439s-1.6199951-0.2200317-2.3300171-0.6700439l-1.0700073,1.0700073  c-0.1900024,0.1900024-0.4499512,0.2900391-0.7099609,0.2900391c-0.25,0-0.5100098-0.1000366-0.7000122-0.2900391  c-0.3900146-0.3900146-0.3900146-1.0299683,0-1.4199829l1.0599976-1.0599976c-0.8900146-1.4299927-0.8900146-3.2600098,0-4.6799927  l-1.0599976-1.0700073c-0.3900146-0.3900146-0.3900146-1.0200195,0-1.4100342c0.3900146-0.3899536,1.0200195-0.3899536,1.4099731,0  l1.0599976,1.0600586c0.6900024-0.4400024,1.5-0.6700439,2.3400269-0.6700439c0.8499756,0,1.6599731,0.2300415,2.3499756,0.6700439  l1.0599976-1.0600586c0.3900146-0.3899536,1.0200195-0.3899536,1.4100342,0c0.4000244,0.3900146,0.4000244,1.0200195,0,1.4100342  l-1.0599976,1.0700073C19.64505,13.0499878,19.64505,14.8800049,18.7550354,16.2999878z"/></svg>