<?xml version="1.0" encoding="UTF-8"?>
<svg width="267px" height="106px" viewBox="0 0 267 106" version="1.1" xmlns="http://www.w3.org/2000/svg" xmlns:xlink="http://www.w3.org/1999/xlink">
    <!-- Generator: sketchtool 52.6 (67491) - http://www.bohemiancoding.com/sketch -->
    <title>792B76E2-D9BA-4707-8A03-F686AB16F05E</title>
    <desc>Created with sketchtool.</desc>
    <g id="Page-1" stroke="none" stroke-width="1" fill="none" fill-rule="evenodd">
        <g id="Landing-" transform="translate(-975.000000, -3039.000000)">
            <g id="Group-28" transform="translate(739.000000, 2747.000000)">
                <g id="Group-4-Copy-2" transform="translate(236.000000, 289.000000)">
                    <path d="M90,-64.1648124 L152.453025,-64.1648124 L160.1224,-77 L167.738357,-64.1648124 L176.997763,-64.1648124 C181.968325,-64.1648124 185.997763,-60.1353752 185.997763,-55.1648124 L185.997763,180.544738 C185.997763,185.515301 181.968325,189.544738 176.997763,189.544738 L90,189.544738 C85.0294373,189.544738 81,185.515301 81,180.544738 L81,-55.1648124 C81,-60.1353752 85.0294373,-64.1648124 90,-64.1648124 Z" id="Rectangle" fill="#DBE7EC" fill-rule="nonzero" transform="translate(133.498881, 56.272369) rotate(270.000000) translate(-133.498881, -56.272369) "></path>
                    <g id="Group-27" transform="translate(38.000000, 30.000000)" fill-rule="nonzero">
                        <g id="Group-14" fill="#FFFFFF">
                            <circle id="Oval" cx="27" cy="27" r="27"></circle>
                        </g>
                        <g id="iconspace_Next_25px" transform="translate(5.328947, 7.105263)" fill="#50E3C2">
                            <path d="M21.5956938,38.5714286 C31.5933029,38.5714286 39.6979665,30.3686456 39.6979665,20.25 C39.6979665,10.1313544 31.5933029,1.92857143 21.5956938,1.92857143 C11.5980846,1.92857143 3.49342105,10.1313544 3.49342105,20.25 C3.49342105,30.3686456 11.5980846,38.5714286 21.5956938,38.5714286 Z M21.5956938,40.5 C10.5457047,40.5 1.58791866,31.4337662 1.58791866,20.25 C1.58791866,9.06623382 10.5457047,0 21.5956938,0 C32.6456829,0 41.6034689,9.06623382 41.6034689,20.25 C41.6034689,31.4337662 32.6456829,40.5 21.5956938,40.5 Z" id="Next-Copy-2" stroke="#838383" stroke-width="2.592"></path>
                            <path d="M15.3261432,29.1075813 C14.8976763,29.4167165 14.7979413,30.0188662 15.1033787,30.4525203 C15.4088162,30.8861744 16.0037631,30.9871169 16.43223,30.6779817 L29.7707467,21.0543543 C30.3030733,20.6702851 30.303819,19.8700959 29.7722092,19.4850111 L16.4336925,9.82292426 C16.0058026,9.51297154 15.4106685,9.61277797 15.1044234,10.0458481 C14.7981782,10.4789183 14.8967908,11.0812574 15.3246807,11.3912101 L27.5785275,20.2675893 L15.3261432,29.1075813 Z" id="Next-Copy" stroke="#838383" stroke-width="2.592"></path>
                            <path d="M20.0077751,38.5714286 C30.0053843,38.5714286 38.1100478,30.3686456 38.1100478,20.25 C38.1100478,10.1313544 30.0053843,1.92857143 20.0077751,1.92857143 C10.010166,1.92857143 1.90550239,10.1313544 1.90550239,20.25 C1.90550239,30.3686456 10.010166,38.5714286 20.0077751,38.5714286 Z M20.0077751,40.5 C8.95778604,40.5 0,31.4337662 0,20.25 C0,9.06623382 8.95778604,0 20.0077751,0 C31.0577642,0 40.0155502,9.06623382 40.0155502,20.25 C40.0155502,31.4337662 31.0577642,40.5 20.0077751,40.5 Z" id="Next"></path>
                            <path d="M13.7382245,29.1075813 C13.3097577,29.4167165 13.2100226,30.0188662 13.5154601,30.4525203 C13.8208975,30.8861744 14.4158445,30.9871169 14.8443113,30.6779817 L28.1828281,21.0543543 C28.7151546,20.6702851 28.7159004,19.8700959 28.1842906,19.4850111 L14.8457738,9.82292426 C14.4178839,9.51297154 13.8227499,9.61277797 13.5165047,10.0458481 C13.2102596,10.4789183 13.3088721,11.0812574 13.736762,11.3912101 L25.9906088,20.2675893 L13.7382245,29.1075813 Z" id="Next"></path>
                        </g>
                    </g>
                    <text id="Build-a-personal-por" font-family="Graphik-Regular, Graphik" font-size="14" font-style="italic" font-weight="normal" line-spacing="22" letter-spacing="0.4375" fill="#000000">
                        <tspan x="113" y="11"></tspan>
                        <tspan x="113" y="33">Build a personal </tspan>
                        <tspan x="113" y="55">portfolio to invest </tspan>
                        <tspan x="113" y="77">and create value.</tspan>
                    </text>
                </g>
            </g>
        </g>
    </g>
</svg>