<?xml version="1.0" encoding="UTF-8"?>
<svg width="469px" height="434px" viewBox="0 0 469 434" version="1.1" xmlns="http://www.w3.org/2000/svg" xmlns:xlink="http://www.w3.org/1999/xlink">
    <!-- Generator: sketchtool 52.6 (67491) - http://www.bohemiancoding.com/sketch -->
    <title>9687317C-E1C3-4858-A7F6-314EEC731C8B</title>
    <desc>Created with sketchtool.</desc>
    <g id="Page-1" stroke="none" stroke-width="1" fill="none" fill-rule="evenodd">
        <g id="Landing-" transform="translate(-485.000000, -4396.000000)" fill="#E3F7FF">
            <g id="Rectangle" transform="translate(151.000000, 4332.000000)">
                <g id="Group-18" transform="translate(556.508805, 286.324308) rotate(-9.000000) translate(-556.508805, -286.324308) translate(324.508805, 85.824308)">
                    <path d="M196.302508,7.47389726 L203.072956,15.6010721 C209.433738,23.2364902 208.403231,34.5820629 200.770855,40.9464958 C133.985484,96.6370227 100.592798,140.900026 100.592798,173.735505 C100.592798,197.765468 102.094183,199.26734 148.637119,209.780449 C189.174515,220.293558 216.199446,254.836629 216.199446,296.889063 C216.199446,352.458352 171.157895,394.510786 114.105263,394.510786 C48.0443213,394.510786 -3.63797881e-12,337.439625 -3.63797881e-12,259.342247 C-3.63797881e-12,188.102915 56.907364,103.442043 170.722092,5.35962915 L170.722093,5.35963064 C178.252703,-1.13004293 189.618389,-0.286196999 196.108063,7.24441329 C196.173516,7.32036507 196.238333,7.39686239 196.302508,7.47389726 Z" id="“"></path>
                    <path d="M444.03104,13.4813879 L450.801487,21.6085628 C457.16227,29.2439809 456.131763,40.5895535 448.499387,46.9539865 C381.714015,102.644513 348.32133,146.907516 348.32133,179.742996 C348.32133,203.772958 349.822715,205.274831 396.365651,215.78794 C436.903047,226.301048 463.927978,260.844119 463.927978,302.896554 C463.927978,358.465842 418.886427,400.518277 361.833795,400.518277 C295.772853,400.518277 247.728532,343.447116 247.728532,265.349737 C247.728532,194.110406 304.635896,109.449533 418.450624,11.3671198 L418.450625,11.3671213 C425.981235,4.8774477 437.346921,5.72129364 443.836595,13.2519039 C443.902048,13.3278557 443.966865,13.404353 444.03104,13.4813879 Z" id="“-copy"></path>
                </g>
            </g>
        </g>
    </g>
</svg>